<svg width="18" height="22" viewBox="0 0 18 22" fill="none" xmlns="http://www.w3.org/2000/svg">
<path d="M14.9631 11.6904C14.9354 8.90361 17.2356 7.56701 17.3384 7.49953C16.0457 5.60932 14.0317 5.34996 13.3148 5.32044C11.6022 5.1465 9.97134 6.32927 9.10246 6.32927C8.23539 6.32927 6.893 5.34593 5.47279 5.37098C3.60452 5.3987 1.88246 6.4576 0.921042 8.12999C-1.01923 11.4959 0.424682 16.4841 2.31532 19.2158C3.23962 20.5511 4.3419 22.0536 5.78805 21.9985C7.18187 21.9435 7.70772 21.0971 9.39269 21.0971C11.0777 21.0971 11.5508 21.9985 13.0251 21.9704C14.5239 21.9431 15.4742 20.6096 16.3909 19.2691C17.4521 17.7178 17.889 16.2158 17.9149 16.1397C17.8822 16.1246 14.993 15.0178 14.9631 11.6904Z" fill="black"/>
<path d="M12.1929 3.51252C12.9598 2.58152 13.4794 1.28785 13.3381 0C12.2313 0.0447171 10.8916 0.735595 10.097 1.66571C9.38507 2.49119 8.7626 3.80542 8.92944 5.07002C10.1641 5.16571 11.4233 4.44174 12.1929 3.51252Z" fill="black"/>
</svg>
